<svg width="300" height="95" viewBox="0 0 300 95" fill="none" xmlns="http://www.w3.org/2000/svg">
<g clip-path="url(#clip0_443_386)">
<g filter="url(#filter0_d_443_386)">
<path d="M194.477 4H156.2C154.457 4 153.045 5.41197 153.045 7.15488V29.2611C153.045 31.004 154.457 32.4159 156.2 32.4159H194.477C196.22 32.4159 197.632 31.004 197.632 29.2611V7.15488C197.632 5.41197 196.22 4 194.477 4ZM161.517 26.4371V9.97882C161.517 9.97882 161.583 9.84645 161.649 9.84645H189.006C189.006 9.84645 189.138 9.91263 189.138 9.97882V26.4371C189.138 26.4371 189.072 26.5916 189.006 26.5916H161.649C161.649 26.5916 161.517 26.5254 161.517 26.4371Z" fill="white"/>
<path d="M42.999 4H35.1007C34.9463 4 34.8139 4.13237 34.8139 4.28681V26.4371C34.8139 26.4371 34.7478 26.5916 34.6816 26.5916H8.62627C8.62627 26.5916 8.4939 26.5254 8.4939 26.4371V21.7379C8.4939 21.5835 8.36152 21.4511 8.20709 21.4511H0.286807C0.132372 21.4511 0 21.5835 0 21.7379V29.2611C0 31.004 1.41197 32.4159 3.15488 32.4159H40.1309C41.8738 32.4159 43.2858 31.004 43.2858 29.2611V4.28681C43.2858 4.13237 43.1534 4 42.999 4Z" fill="white"/>
<path d="M145.191 4H101.706C101.552 4 101.419 4.13237 101.419 4.28681V9.55964C101.419 9.71408 101.552 9.84645 101.706 9.84645H119.047C119.047 9.84645 119.201 9.91263 119.201 9.97882V32.1291C119.201 32.2836 119.334 32.4159 119.488 32.4159H127.386C127.541 32.4159 127.673 32.2836 127.673 32.1291V9.97882C127.673 9.97882 127.739 9.84645 127.806 9.84645H145.169C145.323 9.84645 145.455 9.71408 145.455 9.55964V4.28681C145.455 4.13237 145.323 4 145.169 4" fill="white"/>
<path d="M247.977 4H240.079C239.925 4 239.792 4.13237 239.792 4.28681V26.4371C239.792 26.4371 239.726 26.5916 239.66 26.5916H213.825C213.825 26.5916 213.693 26.5254 213.693 26.4371V4.28681C213.693 4.13237 213.561 4 213.406 4H205.508C205.354 4 205.221 4.13237 205.221 4.28681V29.2611C205.221 31.004 206.633 32.4159 208.376 32.4159H245.131C246.874 32.4159 248.286 31.004 248.286 29.2611V4.28681C248.286 4.13237 248.154 4 248 4" fill="white"/>
<path d="M299.868 31.9085L283.718 20.8334H296.293C298.036 20.8334 299.448 19.4214 299.448 17.6785V7.15488C299.448 5.41197 298.036 4 296.293 4H256.096C255.942 4 255.81 4.13237 255.81 4.28681V32.1291C255.81 32.2836 255.942 32.4159 256.096 32.4159H263.995C264.149 32.4159 264.281 32.2836 264.281 32.1291V16.0459L287.998 32.3056C288.13 32.3939 288.263 32.438 288.417 32.438H299.691C299.978 32.438 300.088 32.063 299.845 31.9085M264.458 9.84645H290.844C290.844 9.84645 290.999 9.91263 290.999 9.97882V14.8545C290.999 14.8545 290.932 14.9869 290.844 14.9869H264.458C264.458 14.9869 264.326 14.9207 264.326 14.8545V9.97882C264.326 9.97882 264.392 9.84645 264.458 9.84645Z" fill="white"/>
<path d="M93.5872 9.84645C93.7417 9.84645 93.8741 9.71408 93.8741 9.55964V4.28681C93.8741 4.13237 93.7417 4 93.5872 4H54.0079C52.265 4 50.853 5.41197 50.853 7.15488V29.2611C50.853 31.004 52.265 32.4159 54.0079 32.4159H93.5872C93.7417 32.4159 93.8741 32.2836 93.8741 32.1291V26.8784C93.8741 26.7239 93.7417 26.5916 93.5872 26.5916H59.4572C59.4572 26.5916 59.3028 26.5254 59.3028 26.4371V21.2746C59.3028 21.2746 59.369 21.1202 59.4572 21.1202H91.381C91.5355 21.1202 91.6679 20.9878 91.6679 20.8334V15.5826C91.6679 15.4282 91.5355 15.2958 91.381 15.2958H59.4572C59.4572 15.2958 59.3028 15.2296 59.3028 15.1634V9.97882C59.3028 9.97882 59.369 9.84645 59.4572 9.84645H93.5872Z" fill="white"/>
</g>
</g>
<line y1="47.438" x2="300" y2="47.438" stroke="white" stroke-opacity="0.57" stroke-width="2"/>
<path d="M4.15339 74.5243C4.06667 76.6183 4.06667 78.7225 4.15594 80.8165C4.22225 82.3417 5.01291 83.1094 6.55088 83.1732C8.94838 83.2752 11.3484 83.2574 13.7459 83.2854C14.6386 83.2931 15.5313 83.3033 16.424 83.2778C17.36 83.2548 17.7094 82.9615 17.7936 82.0459C17.8676 81.2475 17.837 80.439 17.8574 79.6356C17.8701 79.151 17.5743 79.1076 17.1891 79.1076C14.8299 79.1178 12.4732 79.1127 10.114 79.1127C9.12947 79.1127 9.06826 79.049 9.06571 78.0619C9.06315 77.5748 9.07336 77.0876 9.06571 76.6005C9.05805 76.1337 9.25699 75.8889 9.7467 75.8889C13.4424 75.8914 17.1381 75.8914 20.8338 75.8914C21.3593 75.8914 21.6347 76.1541 21.6296 76.6668C21.6169 79.1663 21.6883 81.6735 21.5403 84.1653C21.4256 86.1114 20.2957 86.9786 18.3139 86.999H12.4528C12.4503 86.9582 12.4503 86.9148 12.4503 86.8715C10.0528 86.8715 7.65016 86.9735 5.25776 86.8408C3.23009 86.7312 1.47023 85.8921 0.643856 83.8822C0.27403 82.9794 0.0393809 81.9591 0.0266282 80.9874C-0.00907918 78.3246 -0.0498877 75.6466 0.202615 72.9991C0.455117 70.3313 2.12061 68.8367 4.81907 68.4362C5.78062 68.2934 6.76258 68.2271 7.73688 68.222C12.0269 68.199 16.3194 68.2118 20.6094 68.2118C21.6016 68.2118 21.6908 68.3062 21.6934 69.3085C21.6934 69.8824 21.6934 70.4537 21.6934 71.0276C21.6883 71.9458 21.5837 72.0554 20.6706 72.0554C16.5056 72.058 12.3431 72.0554 8.17812 72.058C7.67057 72.058 7.15791 72.0707 6.65035 72.109C5.07413 72.2263 4.2197 72.9634 4.15339 74.5243Z" fill="white"/>
<path d="M102.285 77.4574C102.282 76.9499 102.237 76.4398 102.152 75.9399C101.877 74.2897 100.989 73.119 99.3239 72.7083C98.3623 72.4737 97.365 72.2952 96.378 72.2747C93.5546 72.2186 90.7286 72.2186 87.9026 72.2747C86.9181 72.2952 85.9183 72.4737 84.9593 72.7134C83.3244 73.1215 82.2991 74.2693 82.1817 75.8965C82.0262 78.0645 82.0364 80.2554 82.1817 82.4233C82.2812 83.9154 83.1943 85.0555 84.6838 85.4865C85.6887 85.7773 86.7574 85.966 87.8006 85.9864C91.0703 86.0527 94.3427 86.017 97.615 86.0196H98.421C98.4465 86.193 98.4694 86.2746 98.472 86.3588C98.5765 89.0317 97.944 89.6974 95.2762 89.7C91.4937 89.7051 87.7138 89.7 83.934 89.7C83.7631 89.7 83.5922 89.7051 83.4238 89.7025C82.9826 89.6974 82.7531 89.8862 82.7684 90.3529C82.7862 90.8834 82.7709 91.4139 82.7735 91.9444C82.7735 92.883 82.8143 92.9264 83.7274 92.9264C87.7215 92.9289 91.7156 92.9417 95.7072 92.9187C96.6381 92.9136 97.5793 92.8499 98.4975 92.7019C100.546 92.3704 101.744 91.2813 102.114 89.4602C102.231 88.8812 102.282 88.2819 102.285 87.6927C102.3 84.2801 102.295 80.8675 102.285 77.4549V77.4574ZM98.472 83.0558H96.9136C94.1998 83.0558 91.4835 83.0609 88.7698 83.0482C88.2852 83.0456 87.7929 82.9997 87.316 82.9079C86.5584 82.7625 85.9922 82.2932 85.954 81.5179C85.8826 80.0233 85.8877 78.521 85.9412 77.0238C85.9718 76.2026 86.5661 75.7511 87.3287 75.5751C87.7598 75.4782 88.2086 75.4298 88.6499 75.4272C90.9836 75.4119 93.3173 75.4196 95.6511 75.4221C95.9036 75.4221 96.1612 75.4247 96.4111 75.4655C97.9568 75.7154 98.4516 76.274 98.4669 77.8375C98.4847 79.5489 98.472 81.2577 98.472 83.0558Z" fill="white"/>
<path d="M238.356 76.1822C238.239 74.2055 237.035 72.9685 235.071 72.5834C234.201 72.4125 233.309 72.2799 232.424 72.2671C229.707 72.2288 226.988 72.2339 224.269 72.2645C223.446 72.2747 222.617 72.3768 221.806 72.5273C220.163 72.8282 218.934 73.6775 218.47 75.3609C218.317 75.9067 218.207 76.4857 218.204 77.0493C218.179 82.0943 218.186 87.1367 218.176 92.1816C218.176 92.6892 218.411 92.9264 218.906 92.9264C219.564 92.9289 220.222 92.9315 220.88 92.9315C221.987 92.9289 222.017 92.8983 222.017 91.7837V87.0015H222.816C225.917 86.999 229.016 87.0092 232.117 86.9939C232.86 86.9913 233.604 86.9454 234.342 86.8612C236.762 86.5858 238.172 85.4023 238.354 83.0992C238.532 80.8063 238.494 78.4802 238.356 76.1822ZM234.594 81.8826C234.546 82.9972 233.959 83.6425 232.839 83.696C231.018 83.7802 229.189 83.719 227.366 83.719C227.366 83.747 227.366 83.7751 227.363 83.8057C225.772 83.8057 224.178 83.7904 222.584 83.8133C222.132 83.821 222.005 83.668 222.01 83.2318C222.033 81.5791 222.017 79.9238 222.025 78.271C222.025 77.9752 222.058 77.6768 222.099 77.3835C222.252 76.2485 222.823 75.5879 223.948 75.5649C226.879 75.5114 229.809 75.5088 232.74 75.5675C233.898 75.5879 234.546 76.274 234.597 77.4345C234.66 78.9138 234.658 80.4007 234.597 81.8826H234.594Z" fill="white"/>
<path d="M215.34 78.4599C215.335 77.7406 215.299 77.0188 215.23 76.3047C215.042 74.3178 214.037 73.0834 212.091 72.637C211.027 72.3947 209.912 72.2799 208.818 72.2672C205.145 72.2213 201.47 72.2493 197.797 72.2493C197.693 72.2493 197.586 72.2519 197.479 72.2493C197.058 72.2468 196.861 72.4457 196.872 72.8742C196.884 73.5527 196.884 74.2311 196.872 74.9095C196.864 75.2845 197.032 75.4579 197.397 75.463C197.632 75.4681 197.864 75.4706 198.098 75.4706C201.835 75.4911 205.571 75.4834 209.305 75.5395C210.759 75.5599 211.657 76.093 211.438 78.3859H210.706C207.5 78.3859 204.294 78.3834 201.088 78.391C200.514 78.391 199.94 78.4216 199.371 78.4777C197.718 78.6384 196.609 79.5847 196.504 81.0283C196.428 82.1224 196.43 83.2319 196.512 84.3235C196.616 85.711 197.451 86.5757 198.807 86.8435C199.264 86.9327 199.733 86.9914 200.197 86.9914C204.633 87.0041 209.071 87.0016 213.509 86.9965C214.815 86.9965 215.215 86.6165 215.33 85.3233C215.35 85.0912 215.345 84.8566 215.345 84.6245C215.348 82.5688 215.355 80.513 215.34 78.4599ZM211.478 83.3696C211.461 83.8338 211.18 84.0787 210.68 84.0761C207.625 84.0685 204.569 84.0812 201.514 84.0659C200.593 84.0608 200.205 83.6451 200.174 82.7346C200.169 82.5229 200.169 82.3112 200.174 82.0995C200.2 81.2757 200.526 80.8956 201.345 80.7962C201.7 80.7528 202.064 80.7706 202.424 80.7706C205.416 80.7681 208.408 80.7706 211.489 80.7706C211.489 81.6888 211.512 82.5305 211.478 83.3696Z" fill="white"/>
<path d="M177.587 76.5318C177.508 74.3103 176.376 73.1013 174.215 72.5683C173.825 72.4714 173.425 72.3719 173.027 72.3693C168.635 72.3183 164.24 72.2877 159.846 72.2469C159.356 72.2418 159.152 72.4663 159.16 72.9432C159.17 73.5783 159.17 74.2134 159.16 74.8485C159.152 75.2769 159.353 75.4733 159.774 75.4682C160.07 75.4657 160.369 75.4708 160.667 75.4708C164.296 75.4886 167.928 75.4606 171.558 75.5396C173.381 75.5805 174.009 76.4629 173.744 78.386H172.955C170.002 78.386 167.051 78.3809 164.1 78.3911C163.314 78.3937 162.526 78.409 161.746 78.4779C159.825 78.6411 158.831 79.6996 158.769 81.6125C158.749 82.2475 158.754 82.8852 158.764 83.5203C158.795 85.7749 159.779 86.8155 162.032 86.9813C162.35 87.0043 162.669 86.9992 162.988 86.9992C165.556 87.0017 168.127 87.0017 170.696 86.9992C172.458 86.9992 174.223 87.0094 175.985 86.9941C177.077 86.9839 177.608 86.5605 177.618 85.5581C177.646 82.5485 177.692 79.5363 177.587 76.5318ZM173.797 83.3927C173.787 83.8544 173.504 84.0712 173.047 84.0712C169.951 84.0712 166.855 84.0839 163.758 84.061C162.889 84.0533 162.503 83.584 162.465 82.6607C162.412 81.439 162.707 80.9544 163.61 80.8014C163.756 80.7759 163.906 80.7733 164.054 80.7733C167.15 80.7733 170.247 80.7733 173.346 80.7733C173.468 80.7733 173.593 80.7886 173.802 80.8039C173.802 81.7094 173.815 82.5536 173.797 83.3953V83.3927Z" fill="white"/>
<path d="M77.678 80.7633C78.8895 80.7607 79.3078 80.373 79.3104 79.1717C79.3155 77.9245 79.3027 76.6722 79.2083 75.4276C79.063 73.507 78.1091 72.4383 76.1962 72.3924C72.401 72.2981 68.6007 72.2726 64.808 72.4077C62.2448 72.4996 60.6864 73.8998 60.5206 76.1876C60.3574 78.4831 60.3803 80.8041 60.513 83.1047C60.6277 85.0966 61.8953 86.354 63.8593 86.7315C64.6474 86.882 65.4559 86.9764 66.2593 86.9866C68.7639 87.0197 71.2711 86.9993 73.7757 86.9993C75.2193 87.0019 76.6655 86.9815 78.1091 87.0095C78.6651 87.0197 78.8819 86.8157 78.8513 86.2673C78.8232 85.7394 78.8487 85.2088 78.8462 84.6783C78.8411 83.8469 78.8054 83.8061 77.9892 83.8061C74.4439 83.8035 70.8962 83.8112 67.3509 83.7984C66.8 83.7984 66.2465 83.7474 65.7033 83.6581C65.0223 83.5485 64.5147 83.1455 64.3439 82.4747C64.2112 81.9544 64.2163 81.4009 64.1526 80.7658H65.0631C69.2664 80.7658 73.4722 80.7684 77.678 80.7633ZM64.1526 78.3683C64.2163 77.7103 64.2061 77.1339 64.3413 76.5906C64.5428 75.7668 65.2136 75.4327 65.994 75.3153C66.3919 75.2567 66.8 75.2439 67.203 75.2439C69.4118 75.2363 71.6205 75.2261 73.8293 75.2439C75.1862 75.2567 75.533 75.6138 75.5356 76.9477C75.5356 78.5902 75.7039 78.3581 74.1098 78.3632C71.0721 78.3734 68.0345 78.3683 64.9968 78.3683H64.1526Z" fill="white"/>
<path d="M43.0951 74.8687C42.988 73.6725 42.2381 72.8461 41.0368 72.5579C40.3609 72.3972 39.657 72.2748 38.9658 72.2672C36.0556 72.2366 33.1455 72.2238 30.2379 72.2748C29.2916 72.2927 28.3352 72.4559 27.4145 72.6855C25.7082 73.1088 24.6471 74.2719 24.5349 75.9986C24.3844 78.2966 24.3309 80.6176 24.4711 82.9156C24.6038 85.0938 25.7413 86.2772 27.7027 86.7108C28.3837 86.8613 29.0876 86.9735 29.7813 86.9786C33.903 87.0067 38.0221 86.9914 42.1438 87.0067C42.659 87.0092 42.8248 86.7797 42.8222 86.3206C42.8171 85.7697 42.8273 85.2188 42.8197 84.6678C42.812 83.8746 42.7431 83.8058 41.9372 83.8058C38.3894 83.8032 34.8441 83.8109 31.2964 83.7981C30.7684 83.7981 30.2328 83.7548 29.7125 83.6655C28.8632 83.5201 28.3735 83.033 28.2561 82.2015C28.1924 81.7526 28.2459 81.2858 28.2459 80.7655H39.4045C40.2538 80.763 41.1057 80.7808 41.955 80.7528C42.7712 80.7247 43.2201 80.3804 43.2277 79.628C43.243 78.0416 43.2379 76.4475 43.0951 74.8687ZM38.1216 78.3604C35.066 78.3782 32.0131 78.368 28.9575 78.368H28.2485C28.2179 78.2227 28.2051 78.1844 28.2026 78.141C28.1056 75.9425 28.6719 75.2972 30.873 75.2564C33.2067 75.213 35.5404 75.2258 37.8716 75.2487C39.1494 75.2615 39.4759 75.6033 39.5014 76.8964C39.5397 78.7175 39.5244 78.3527 38.1216 78.3604Z" fill="white"/>
<path d="M123.911 75.3458C123.781 73.6472 123.026 72.8488 121.363 72.4663C120.769 72.3311 120.146 72.2648 119.534 72.2597C116.775 72.2393 114.012 72.2316 111.25 72.2648C110.406 72.275 109.551 72.3642 108.723 72.5249C106.549 72.9407 105.389 74.0935 105.223 76.2819C105.063 78.3682 105.029 80.4775 105.147 82.5664C105.29 85.0251 106.371 86.2646 108.455 86.7161C109.095 86.8564 109.755 86.9711 110.408 86.9762C114.571 87.0043 118.736 86.9915 122.898 87.0068C123.383 87.0068 123.541 86.7747 123.541 86.3462C123.541 85.8387 123.544 85.3286 123.541 84.821C123.541 83.8416 123.508 83.8059 122.554 83.8059C119.05 83.8059 115.543 83.8085 112.038 83.8008C111.551 83.7983 111.061 83.7626 110.579 83.6911C109.582 83.5432 109.064 83.0229 108.937 82.0359C108.886 81.6431 108.927 81.2401 108.927 80.7657H109.702C113.844 80.7657 117.986 80.7657 122.131 80.7631C122.383 80.7631 122.643 80.7733 122.893 80.7351C123.574 80.6356 123.944 80.2862 123.957 79.6026C123.98 78.182 124.018 76.7563 123.911 75.3458ZM118.534 78.3682H108.916C108.916 77.8963 108.891 77.5163 108.921 77.1414C109.013 76.0523 109.631 75.3484 110.758 75.3203C113.515 75.254 116.275 75.2642 119.034 75.2872C119.774 75.2923 120.09 75.6595 120.202 76.3839C120.493 78.2279 120.376 78.3682 118.534 78.3682Z" fill="white"/>
<path d="M291.897 76.5725C291.695 73.9148 290.234 72.4916 287.507 72.3998C283.694 72.2748 279.868 72.257 276.058 72.4126C273.762 72.5044 271.862 73.4608 271.676 76.5699C271.559 78.5517 271.612 80.5462 271.64 82.5356C271.648 83.0967 271.776 83.6782 271.959 84.2113C272.579 86.0196 274.061 86.7389 275.8 86.846C277.785 86.9659 279.784 86.8741 281.776 86.8741V86.8792C283.75 86.8792 285.727 86.9837 287.691 86.8537C290.331 86.6777 291.703 85.3488 291.897 82.7269C292.05 80.6839 292.052 78.6129 291.897 76.5725ZM288.061 82.0459C287.987 83.2038 287.301 83.7675 286.104 83.8109C284.663 83.8644 283.217 83.8236 281.774 83.8236V83.8338C280.394 83.8338 279.011 83.8721 277.632 83.8236C276.234 83.7752 275.614 83.2549 275.52 81.8827C275.415 80.4085 275.415 78.919 275.512 77.4448C275.601 76.1134 276.04 75.5701 277.356 75.5268C280.363 75.4298 283.378 75.4655 286.385 75.5574C287.456 75.5905 287.994 76.1644 288.058 77.2254C288.153 78.8271 288.16 80.4442 288.061 82.0459Z" fill="white"/>
<path d="M157.045 71.1987C157.061 71.8134 156.79 72.0685 156.165 72.0634C153.722 72.0455 151.281 72.0557 148.838 72.0557H148.009V72.8693C148.009 77.2129 148.011 81.5564 148.009 85.9C148.009 86.9406 147.945 86.9993 146.884 86.9993C146.162 87.0018 145.44 87.0044 144.719 86.9993C143.994 86.9942 143.867 86.8615 143.867 86.0734C143.862 82.62 143.864 79.1666 143.864 75.7132V72.0557H140.219C138.712 72.0557 137.205 72.0634 135.697 72.0532C134.981 72.0481 134.84 71.9052 134.83 71.1911C134.817 70.4922 134.82 69.7934 134.828 69.0945C134.84 68.3549 134.978 68.2172 135.743 68.2146C138.506 68.2095 141.265 68.2121 144.027 68.2121H155.941C156.946 68.2121 157.038 68.3013 157.04 69.2909C157.045 69.926 157.027 70.5611 157.045 71.1987Z" fill="white"/>
<path d="M272.694 68.38C272.618 68.6045 272.592 68.8697 272.454 69.0508C269.812 72.4991 267.208 75.9806 264.476 79.3575C263.433 80.6481 262.816 81.9259 263.025 83.6041C263.135 84.479 263.033 85.3819 263.048 86.2694C263.058 86.777 262.854 87.0117 262.334 87.004C261.444 86.9887 260.551 86.9912 259.658 87.004C259.143 87.0117 258.939 86.7796 258.944 86.2694C258.957 84.8309 258.975 83.3873 258.929 81.9488C258.919 81.5586 258.786 81.1072 258.554 80.7986C255.618 76.9065 252.657 73.0373 249.704 69.1605C249.614 69.0406 249.518 68.9284 249.436 68.8034C249.222 68.4821 249.326 68.2372 249.693 68.2296C250.923 68.2092 252.155 68.2066 253.384 68.2576C253.598 68.2678 253.851 68.528 254.004 68.732C256.274 71.7722 258.529 74.8227 260.788 77.868C260.862 77.9675 260.946 78.0593 261.074 78.2098C262.071 76.8758 263.046 75.5725 264.015 74.2718C265.384 72.4354 266.759 70.6066 268.111 68.7601C268.407 68.3571 268.749 68.1913 269.241 68.204C270.174 68.2296 271.108 68.2015 272.041 68.2194C272.261 68.2245 272.477 68.3239 272.694 68.38Z" fill="white"/>
<path d="M57.6507 87.5038C57.6456 88.1364 57.6048 88.7791 57.4772 89.3963C57.036 91.5566 55.7403 92.6278 53.2791 92.8242C52.0548 92.9237 50.8204 92.8956 49.591 92.9313C49.1141 92.9441 48.882 92.735 48.8896 92.2504C48.8998 91.6382 48.9049 91.0236 48.8896 90.4089C48.8769 89.8835 49.137 89.6973 49.6318 89.6998C50.374 89.7049 51.1188 89.7075 51.861 89.6667C52.9654 89.6055 53.5775 89.0341 53.7203 87.9553C53.7841 87.4732 53.8223 86.9861 53.8249 86.4989C53.8325 82.0941 53.8274 77.6894 53.83 73.2821C53.83 72.3511 53.9295 72.2517 54.8374 72.2491C55.4317 72.2466 56.026 72.2466 56.6203 72.2491C57.5181 72.2517 57.6609 72.3868 57.6609 73.2693C57.6634 75.7255 57.6609 78.1842 57.6609 80.6403C57.6609 82.9282 57.6736 85.216 57.6532 87.5038H57.6507Z" fill="white"/>
<path d="M194.905 74.7155C194.938 75.3073 194.668 75.4832 194.11 75.4781C192.028 75.4603 189.947 75.4679 187.866 75.473C187.442 75.4756 187.017 75.4934 186.593 75.5266C185.022 75.6516 184.397 76.2918 184.384 77.8858C184.359 80.4721 184.372 83.0583 184.369 85.6446C184.367 86.5474 183.907 86.9997 182.987 87.0014C182.5 87.0014 182.01 87.0014 181.523 86.9989C180.587 86.9989 180.533 86.9479 180.531 86.0399C180.528 84.4917 180.531 82.9461 180.531 81.3979C180.51 81.3979 180.487 81.3979 180.467 81.3954C180.533 79.5768 180.523 77.7507 180.691 75.9423C180.854 74.2003 181.921 73.0781 183.617 72.6649C184.558 72.4379 185.54 72.2925 186.506 72.2721C189.031 72.216 191.562 72.2645 194.089 72.239C194.704 72.2339 194.933 72.466 194.905 73.0628C194.877 73.6112 194.872 74.1646 194.905 74.7155Z" fill="white"/>
<path d="M298.992 73.3178C298.995 77.5542 298.995 81.7906 298.992 86.0296C298.992 86.9452 298.936 86.9988 298.013 86.9988C297.441 87.0014 296.867 87.0014 296.293 86.9988C295.192 86.9988 295.176 86.9835 295.174 85.9097V77.0109C295.174 73.9605 295.174 70.9101 295.176 67.8596C295.176 67.018 295.294 66.9032 296.128 66.9006C296.806 66.8981 297.487 66.921 298.166 66.8955C298.765 66.8726 299.005 67.1251 299 67.7245C298.982 69.5889 298.992 71.4533 298.992 73.3178Z" fill="white"/>
<path d="M50.0348 76.9449C50.0348 79.9927 50.0348 83.0432 50.0323 86.0936C50.0323 86.9276 49.9583 86.9965 49.1192 86.999C48.3974 87.0016 47.6756 86.9837 46.9538 87.0067C46.4309 87.022 46.2167 86.7797 46.2218 86.2849C46.2243 86.1574 46.2218 86.0324 46.2218 85.9049V68.0486C46.2218 66.9595 46.2804 66.9009 47.3695 66.9009C47.9842 66.9009 48.6014 66.9213 49.2161 66.8958C49.8206 66.8703 50.0425 67.1355 50.0399 67.7298C50.0272 70.8006 50.0348 73.8715 50.0348 76.9449Z" fill="white"/>
<path d="M264.721 63.0722C263.826 64.3832 262.925 65.6916 261.984 66.9694C261.824 67.1888 261.472 67.3112 261.183 67.3775C260.883 67.4464 260.551 67.3928 260.235 67.3928C260.227 67.426 260.222 67.4566 260.214 67.4872C259.735 67.3852 259.258 67.2806 258.778 67.176C258.98 66.7705 259.161 66.3497 259.39 65.9594C259.959 64.9902 260.553 64.0414 261.127 63.0748C261.39 62.6335 261.742 62.4167 262.273 62.4397C262.971 62.4678 263.673 62.432 264.372 62.4499C264.895 62.4652 265.007 62.6514 264.721 63.0722Z" fill="white"/>
<path d="M57.6587 69.8418C57.6587 70.3086 57.4292 70.5509 56.9624 70.5534C56.1565 70.5585 55.3505 70.5534 54.5445 70.5534C54.0497 70.5534 53.7998 70.329 53.8227 69.8138C53.8406 69.4337 53.8278 69.0512 53.8278 68.6711C53.8278 68.3345 53.8227 67.9953 53.8278 67.656C53.8355 66.9266 53.9605 66.7914 54.6644 66.7837C55.4066 66.7735 56.1488 66.7863 56.891 66.7812C57.419 66.7761 57.6689 67.026 57.6613 67.554C57.6511 68.3166 57.6587 69.0767 57.6587 69.8393V69.8418Z" fill="white"/>
<defs>
<filter id="filter0_d_443_386" x="-2" y="4" width="303.979" height="34.438" filterUnits="userSpaceOnUse" color-interpolation-filters="sRGB">
<feFlood flood-opacity="0" result="BackgroundImageFix"/>
<feColorMatrix in="SourceAlpha" type="matrix" values="0 0 0 0 0 0 0 0 0 0 0 0 0 0 0 0 0 0 127 0" result="hardAlpha"/>
<feOffset dy="4"/>
<feGaussianBlur stdDeviation="1"/>
<feComposite in2="hardAlpha" operator="out"/>
<feColorMatrix type="matrix" values="0 0 0 0 0 0 0 0 0 0 0 0 0 0 0 0 0 0 0.25 0"/>
<feBlend mode="normal" in2="BackgroundImageFix" result="effect1_dropShadow_443_386"/>
<feBlend mode="normal" in="SourceGraphic" in2="effect1_dropShadow_443_386" result="shape"/>
</filter>
<clipPath id="clip0_443_386">
<rect width="300" height="36.438" fill="white"/>
</clipPath>
</defs>
</svg>
