<svg width="108" height="30" viewBox="0 0 108 30" fill="none" xmlns="http://www.w3.org/2000/svg">
<path d="M68.7029 4.95813H56.0524C55.4764 4.95813 55.0098 5.42478 55.0098 6.00079V13.3067C55.0098 13.8828 55.4764 14.3494 56.0524 14.3494H68.7029C69.279 14.3494 69.7456 13.8828 69.7456 13.3067V6.00079C69.7456 5.42478 69.279 4.95813 68.7029 4.95813ZM57.8096 12.3734V6.93409C57.8096 6.93409 57.8315 6.89034 57.8534 6.89034H66.8947C66.8947 6.89034 66.9384 6.91222 66.9384 6.93409V12.3734C66.9384 12.3734 66.9166 12.4245 66.8947 12.4245H57.8534C57.8534 12.4245 57.8096 12.4026 57.8096 12.3734Z" fill="#F6F6F6"/>
<path d="M18.6403 4.95813H16.03C15.979 4.95813 15.9352 5.00188 15.9352 5.05292V12.3734C15.9352 12.3734 15.9133 12.4245 15.8915 12.4245H7.28037C7.28037 12.4245 7.23662 12.4026 7.23662 12.3734V10.8204C7.23662 10.7693 7.19287 10.7256 7.14183 10.7256H4.52423C4.47319 10.7256 4.42944 10.7693 4.42944 10.8204V13.3067C4.42944 13.8828 4.89609 14.3494 5.47211 14.3494H17.6924C18.2685 14.3494 18.7351 13.8828 18.7351 13.3067V5.05292C18.7351 5.00188 18.6913 4.95813 18.6403 4.95813Z" fill="#F6F6F6"/>
<path d="M52.4138 4.95813H38.0425C37.9915 4.95813 37.9478 5.00188 37.9478 5.05292V6.79555C37.9478 6.84659 37.9915 6.89034 38.0425 6.89034H43.7736C43.7736 6.89034 43.8246 6.91222 43.8246 6.93409V14.2546C43.8246 14.3057 43.8683 14.3494 43.9194 14.3494H46.5297C46.5807 14.3494 46.6245 14.3057 46.6245 14.2546V6.93409C46.6245 6.93409 46.6463 6.89034 46.6682 6.89034H52.4065C52.4576 6.89034 52.5013 6.84659 52.5013 6.79555V5.05292C52.5013 5.00188 52.4576 4.95813 52.4065 4.95813" fill="#F6F6F6"/>
<path d="M86.3843 4.95813H83.774C83.723 4.95813 83.6792 5.00188 83.6792 5.05292V12.3734C83.6792 12.3734 83.6574 12.4245 83.6355 12.4245H75.0973C75.0973 12.4245 75.0535 12.4026 75.0535 12.3734V5.05292C75.0535 5.00188 75.0098 4.95813 74.9588 4.95813H72.3485C72.2974 4.95813 72.2537 5.00188 72.2537 5.05292V13.3067C72.2537 13.8828 72.7203 14.3494 73.2963 14.3494H85.4437C86.0198 14.3494 86.4864 13.8828 86.4864 13.3067V5.05292C86.4864 5.00188 86.4427 4.95813 86.3916 4.95813" fill="#F6F6F6"/>
<path d="M103.534 14.1817L98.1962 10.5214H102.352C102.928 10.5214 103.395 10.0548 103.395 9.47877V6.00079C103.395 5.42478 102.928 4.95813 102.352 4.95813H89.0674C89.0164 4.95813 88.9727 5.00188 88.9727 5.05292V14.2546C88.9727 14.3057 89.0164 14.3494 89.0674 14.3494H91.6778C91.7288 14.3494 91.7725 14.3057 91.7725 14.2546V8.93921L99.6108 14.3129C99.6545 14.3421 99.6982 14.3567 99.7493 14.3567H103.475C103.57 14.3567 103.606 14.2327 103.526 14.1817M91.8309 6.89034H100.551C100.551 6.89034 100.602 6.91222 100.602 6.93409V8.54548C100.602 8.54548 100.581 8.58923 100.551 8.58923H91.8309C91.8309 8.58923 91.7871 8.56735 91.7871 8.54548V6.93409C91.7871 6.93409 91.809 6.89034 91.8309 6.89034Z" fill="#F6F6F6"/>
<path d="M35.3595 6.89034C35.4105 6.89034 35.4542 6.84659 35.4542 6.79555V5.05292C35.4542 5.00188 35.4105 4.95813 35.3595 4.95813H22.2787C21.7027 4.95813 21.2361 5.42478 21.2361 6.00079V13.3067C21.2361 13.8828 21.7027 14.3494 22.2787 14.3494H35.3595C35.4105 14.3494 35.4542 14.3057 35.4542 14.2546V12.5193C35.4542 12.4682 35.4105 12.4245 35.3595 12.4245H24.0797C24.0797 12.4245 24.0287 12.4026 24.0287 12.3734V10.6673C24.0287 10.6673 24.0506 10.6162 24.0797 10.6162H34.6303C34.6814 10.6162 34.7251 10.5725 34.7251 10.5214V8.7861C34.7251 8.73506 34.6814 8.69131 34.6303 8.69131H24.0797C24.0797 8.69131 24.0287 8.66943 24.0287 8.64756V6.93409C24.0287 6.93409 24.0506 6.89034 24.0797 6.89034H35.3595Z" fill="#F6F6F6"/>
<path d="M13.6749 21.563H4.42944V21.8911H13.6749V21.563Z" fill="#F6F6F6"/>
<path d="M103.526 21.563H94.281V21.8911H103.526V21.563Z" fill="#F6F6F6"/>
<path d="M17.9188 20.4718C17.8973 20.9916 17.8973 21.514 17.9195 22.0339C17.9359 22.4125 18.1322 22.6031 18.5141 22.619C19.1093 22.6443 19.7051 22.6399 20.3003 22.6468C20.522 22.6487 20.7436 22.6513 20.9652 22.6449C21.1976 22.6392 21.2843 22.5664 21.3052 22.3391C21.3236 22.1409 21.316 21.9402 21.3211 21.7407C21.3242 21.6204 21.2508 21.6096 21.1552 21.6096C20.5694 21.6122 19.9844 21.6109 19.3986 21.6109C19.1542 21.6109 19.139 21.5951 19.1384 21.35C19.1378 21.2291 19.1403 21.1081 19.1384 20.9872C19.1365 20.8713 19.1859 20.8105 19.3075 20.8105C20.225 20.8112 21.1425 20.8112 22.06 20.8112C22.1905 20.8112 22.2588 20.8764 22.2576 21.0036C22.2544 21.6242 22.2721 22.2466 22.2354 22.8653C22.2069 23.3484 21.9264 23.5637 21.4344 23.5688H19.9793C19.9787 23.5586 19.9787 23.5479 19.9787 23.5371C19.3834 23.5371 18.787 23.5624 18.193 23.5295C17.6896 23.5023 17.2527 23.294 17.0475 22.795C16.9557 22.5708 16.8975 22.3176 16.8943 22.0763C16.8854 21.4152 16.8753 20.7504 16.938 20.0931C17.0007 19.4308 17.4142 19.0597 18.0841 18.9603C18.3228 18.9248 18.5666 18.9084 18.8085 18.9071C19.8735 18.9014 20.9392 18.9046 22.0043 18.9046C22.2506 18.9046 22.2728 18.928 22.2734 19.1768C22.2734 19.3193 22.2734 19.4612 22.2734 19.6036C22.2721 19.8316 22.2462 19.8588 22.0195 19.8588C20.9855 19.8594 19.9521 19.8588 18.918 19.8594C18.792 19.8594 18.6648 19.8626 18.5387 19.8721C18.1474 19.9012 17.9353 20.0842 17.9188 20.4718Z" fill="#F6F6F6"/>
<path d="M42.2814 21.2C42.2808 21.074 42.2694 20.9473 42.2485 20.8232C42.1801 20.4135 41.9598 20.1229 41.5463 20.021C41.3075 19.9627 41.06 19.9184 40.8149 19.9133C40.114 19.8994 39.4124 19.8994 38.7108 19.9133C38.4663 19.9184 38.2181 19.9627 37.98 20.0222C37.5742 20.1235 37.3196 20.4085 37.2905 20.8125C37.2519 21.3507 37.2544 21.8946 37.2905 22.4328C37.3152 22.8033 37.5419 23.0863 37.9117 23.1933C38.1611 23.2655 38.4265 23.3124 38.6854 23.3174C39.4972 23.3339 40.3096 23.325 41.122 23.3257H41.3221C41.3284 23.3687 41.3341 23.389 41.3348 23.4099C41.3607 24.0735 41.2037 24.2387 40.5414 24.2394C39.6023 24.2406 38.6639 24.2394 37.7255 24.2394C37.6831 24.2394 37.6406 24.2406 37.5989 24.24C37.4893 24.2387 37.4323 24.2856 37.4361 24.4015C37.4405 24.5332 37.4367 24.6649 37.4374 24.7966C37.4374 25.0296 37.4475 25.0404 37.6742 25.0404C38.6658 25.041 39.6574 25.0442 40.6484 25.0385C40.8795 25.0372 41.1132 25.0214 41.3411 24.9847C41.8496 24.9024 42.1472 24.632 42.239 24.1799C42.2681 24.0361 42.2808 23.8873 42.2814 23.741C42.2852 22.8938 42.284 22.0466 42.2814 21.1994V21.2ZM41.3348 22.5899H40.9479C40.2742 22.5899 39.5998 22.5911 38.9261 22.588C38.8057 22.5873 38.6835 22.5759 38.5651 22.5532C38.3771 22.5171 38.2365 22.4005 38.227 22.2081C38.2093 21.837 38.2105 21.464 38.2238 21.0923C38.2314 20.8884 38.379 20.7764 38.5683 20.7327C38.6753 20.7086 38.7867 20.6966 38.8963 20.696C39.4757 20.6922 40.0551 20.6941 40.6344 20.6947C40.6971 20.6947 40.7611 20.6953 40.8231 20.7055C41.2069 20.7675 41.3297 20.9062 41.3335 21.2943C41.3379 21.7192 41.3348 22.1435 41.3348 22.5899Z" fill="#F6F6F6"/>
<path d="M76.0632 20.8833C76.034 20.3926 75.7352 20.0855 75.2476 19.9898C75.0317 19.9474 74.81 19.9145 74.5903 19.9113C73.916 19.9018 73.241 19.9031 72.566 19.9107C72.3614 19.9132 72.1556 19.9386 71.9543 19.9759C71.5465 20.0506 71.2413 20.2615 71.126 20.6794C71.0881 20.8149 71.0608 20.9587 71.0602 21.0986C71.0539 22.3511 71.0558 23.6029 71.0532 24.8554C71.0532 24.9814 71.1115 25.0403 71.2343 25.0403C71.3977 25.0409 71.5611 25.0416 71.7244 25.0416C71.9992 25.0409 72.0068 25.0333 72.0068 24.7566V23.5694H72.205C72.975 23.5687 73.7444 23.5713 74.5143 23.5675C74.6986 23.5668 74.8835 23.5554 75.0665 23.5345C75.6674 23.4662 76.0176 23.1723 76.0625 22.6006C76.1069 22.0313 76.0974 21.4538 76.0632 20.8833ZM75.1292 22.2985C75.1171 22.5752 74.9715 22.7354 74.6935 22.7487C74.2414 22.7696 73.7874 22.7544 73.3347 22.7544C73.3347 22.7614 73.3347 22.7684 73.334 22.776C72.9389 22.776 72.5432 22.7722 72.1474 22.7779C72.0353 22.7798 72.0037 22.7418 72.0049 22.6335C72.0106 22.2232 72.0068 21.8122 72.0087 21.4019C72.0087 21.3284 72.017 21.2544 72.0271 21.1815C72.0651 20.8998 72.2069 20.7358 72.4862 20.7301C73.2137 20.7168 73.9413 20.7161 74.6688 20.7307C74.9563 20.7358 75.1171 20.9061 75.1298 21.1942C75.1456 21.5615 75.145 21.9306 75.1298 22.2985H75.1292Z" fill="#F6F6F6"/>
<path d="M70.3492 21.4488C70.3479 21.2703 70.3391 21.0911 70.322 20.9138C70.2751 20.4205 70.0256 20.114 69.5425 20.0032C69.2785 19.9431 69.0017 19.9146 68.7301 19.9114C67.8183 19.9 66.9058 19.907 65.994 19.907C65.968 19.907 65.9414 19.9076 65.9149 19.907C65.8104 19.9064 65.7616 19.9557 65.7642 20.0621C65.7673 20.2306 65.7673 20.399 65.7642 20.5674C65.7623 20.6605 65.804 20.7036 65.8946 20.7048C65.9528 20.7061 66.0105 20.7067 66.0687 20.7067C66.9964 20.7118 67.924 20.7099 68.851 20.7238C69.212 20.7289 69.4349 20.8612 69.3804 21.4305H69.1987C68.4027 21.4305 67.6068 21.4298 66.8108 21.4317C66.6684 21.4317 66.5259 21.4393 66.3847 21.4533C65.9744 21.4932 65.6989 21.7281 65.673 22.0865C65.654 22.3581 65.6546 22.6336 65.6749 22.9046C65.7008 23.2491 65.9079 23.4637 66.2448 23.5302C66.3581 23.5524 66.4746 23.5669 66.5899 23.5669C67.691 23.5701 68.7928 23.5695 69.8946 23.5682C70.2188 23.5682 70.3182 23.4738 70.3467 23.1528C70.3517 23.0952 70.3505 23.0369 70.3505 22.9793C70.3511 22.4689 70.353 21.9586 70.3492 21.4488ZM69.3905 22.6678C69.3861 22.783 69.3164 22.8438 69.1923 22.8432C68.4338 22.8413 67.6752 22.8444 66.9166 22.8406C66.688 22.8394 66.5918 22.7362 66.5842 22.5101C66.5829 22.4575 66.5829 22.405 66.5842 22.3524C66.5905 22.1479 66.6715 22.0536 66.8748 22.0289C66.9628 22.0181 67.0534 22.0225 67.1426 22.0225C67.8854 22.0219 68.6281 22.0225 69.3931 22.0225C69.3931 22.2505 69.3988 22.4594 69.3905 22.6678Z" fill="#F6F6F6"/>
<path d="M60.9763 20.9702C60.9567 20.4186 60.6755 20.1185 60.1392 19.9861C60.0423 19.9621 59.9429 19.9374 59.8441 19.9368C58.7538 19.9241 57.6627 19.9165 56.5717 19.9064C56.4501 19.9051 56.3995 19.9608 56.4014 20.0792C56.4039 20.2369 56.4039 20.3946 56.4014 20.5522C56.3995 20.6586 56.4495 20.7074 56.554 20.7061C56.6274 20.7055 56.7015 20.7067 56.7756 20.7067C57.6767 20.7112 58.5784 20.7042 59.4794 20.7238C59.9322 20.734 60.0879 20.9531 60.0221 21.4305H59.8264C59.0932 21.4305 58.3605 21.4292 57.6279 21.4318C57.4329 21.4324 57.2372 21.4362 57.0435 21.4533C56.5667 21.4938 56.3197 21.7566 56.3045 22.2315C56.2994 22.3892 56.3007 22.5475 56.3032 22.7051C56.3108 23.2649 56.5553 23.5232 57.1144 23.5644C57.1935 23.5701 57.2727 23.5688 57.3518 23.5688C57.9895 23.5695 58.6277 23.5695 59.2654 23.5688C59.7029 23.5688 60.1411 23.5714 60.5787 23.5676C60.8497 23.565 60.9814 23.4599 60.9839 23.2111C60.9909 22.4639 61.0023 21.7161 60.9763 20.9702ZM60.0354 22.6735C60.0328 22.7881 59.9625 22.8419 59.8492 22.8419C59.0805 22.8419 58.3118 22.8451 57.5431 22.8394C57.3271 22.8375 57.2315 22.721 57.222 22.4917C57.2087 22.1884 57.2822 22.0681 57.5063 22.0301C57.5424 22.0238 57.5798 22.0232 57.6165 22.0232C58.3852 22.0232 59.1539 22.0232 59.9233 22.0232C59.9537 22.0232 59.9847 22.027 60.0366 22.0308C60.0366 22.2556 60.0398 22.4652 60.0354 22.6741V22.6735Z" fill="#F6F6F6"/>
<path d="M36.1724 22.0206C36.4731 22.02 36.577 21.9238 36.5776 21.6255C36.5789 21.3159 36.5757 21.005 36.5523 20.696C36.5162 20.2192 36.2794 19.9539 35.8045 19.9425C34.8623 19.919 33.9188 19.9127 32.9772 19.9463C32.3408 19.9691 31.9539 20.3167 31.9128 20.8847C31.8723 21.4546 31.878 22.0308 31.9109 22.6019C31.9394 23.0965 32.2541 23.4086 32.7417 23.5023C32.9373 23.5397 33.138 23.5631 33.3375 23.5657C33.9593 23.5739 34.5818 23.5688 35.2036 23.5688C35.562 23.5695 35.921 23.5644 36.2794 23.5714C36.4174 23.5739 36.4712 23.5232 36.4637 23.3871C36.4567 23.256 36.463 23.1243 36.4624 22.9926C36.4611 22.7862 36.4523 22.7761 36.2496 22.7761C35.3695 22.7754 34.4887 22.7773 33.6085 22.7742C33.4717 22.7742 33.3343 22.7615 33.1995 22.7393C33.0304 22.7121 32.9044 22.6121 32.862 22.4455C32.829 22.3163 32.8303 22.1789 32.8145 22.0213H33.0405C34.0841 22.0213 35.1282 22.0219 36.1724 22.0206ZM32.8145 21.4261C32.8303 21.2627 32.8278 21.1196 32.8613 20.9847C32.9114 20.7802 33.0779 20.6972 33.2717 20.6681C33.3704 20.6535 33.4717 20.6504 33.5718 20.6504C34.1202 20.6485 34.6685 20.6459 35.2169 20.6504C35.5537 20.6535 35.6398 20.7422 35.6405 21.0734C35.6405 21.4811 35.6823 21.4235 35.2865 21.4248C34.5324 21.4273 33.7782 21.4261 33.0241 21.4261H32.8145Z" fill="#F6F6F6"/>
<path d="M27.5868 20.5573C27.5602 20.2603 27.374 20.0551 27.0758 19.9836C26.908 19.9437 26.7332 19.9133 26.5616 19.9114C25.8391 19.9038 25.1166 19.9006 24.3948 19.9133C24.1599 19.9177 23.9224 19.9582 23.6938 20.0152C23.2702 20.1203 23.0068 20.4091 22.9789 20.8378C22.9416 21.4083 22.9283 21.9845 22.9631 22.555C22.996 23.0958 23.2784 23.3896 23.7654 23.4972C23.9344 23.5346 24.1092 23.5625 24.2814 23.5637C25.3047 23.5707 26.3273 23.5669 27.3506 23.5707C27.4785 23.5713 27.5197 23.5143 27.519 23.4004C27.5178 23.2636 27.5203 23.1268 27.5184 22.99C27.5165 22.7931 27.4994 22.776 27.2993 22.776C26.4185 22.7754 25.5384 22.7773 24.6576 22.7741C24.5265 22.7741 24.3935 22.7633 24.2643 22.7412C24.0535 22.7051 23.9319 22.5841 23.9028 22.3777C23.887 22.2663 23.9003 22.1504 23.9003 22.0212H26.6705C26.8814 22.0206 27.0929 22.025 27.3037 22.0181C27.5064 22.0111 27.6178 21.9256 27.6197 21.7388C27.6235 21.345 27.6222 20.9492 27.5868 20.5573ZM26.352 21.4241C25.5934 21.4285 24.8355 21.426 24.0769 21.426H23.9009C23.8933 21.3899 23.8901 21.3804 23.8895 21.3697C23.8654 20.8238 24.006 20.6636 24.5525 20.6535C25.1318 20.6427 25.7112 20.6459 26.29 20.6516C26.6072 20.6548 26.6883 20.7396 26.6946 21.0607C26.7041 21.5128 26.7003 21.4222 26.352 21.4241Z" fill="#F6F6F6"/>
<path d="M47.6505 20.6757C47.6182 20.2539 47.4308 20.0557 47.0179 19.9608C46.8704 19.9272 46.7159 19.9107 46.5639 19.9095C45.8788 19.9044 45.193 19.9025 44.5073 19.9107C44.2977 19.9133 44.0855 19.9354 43.8798 19.9753C43.3403 20.0785 43.0521 20.3648 43.011 20.908C42.9711 21.426 42.9629 21.9497 42.992 22.4683C43.0275 23.0787 43.2959 23.3864 43.8133 23.4985C43.9722 23.5333 44.1362 23.5618 44.2983 23.5631C45.3317 23.57 46.3657 23.5669 47.3991 23.5707C47.5194 23.5707 47.5587 23.5131 47.5587 23.4067C47.5587 23.2807 47.5593 23.154 47.5587 23.028C47.5587 22.7849 47.5505 22.776 47.3136 22.776C46.4436 22.776 45.5729 22.7766 44.7029 22.7747C44.582 22.7741 44.4604 22.7652 44.3407 22.7475C44.0931 22.7108 43.9646 22.5816 43.9329 22.3366C43.9203 22.239 43.9304 22.139 43.9304 22.0212H44.1229C45.1512 22.0212 46.1796 22.0212 47.2085 22.0206C47.2712 22.0206 47.3358 22.0231 47.3979 22.0136C47.5669 21.9889 47.6587 21.9022 47.6619 21.7325C47.6676 21.3798 47.6771 21.0258 47.6505 20.6757ZM46.3157 21.426H43.9279C43.9279 21.3089 43.9215 21.2145 43.9291 21.1214C43.9519 20.8511 44.1052 20.6763 44.3851 20.6693C45.0695 20.6529 45.7547 20.6554 46.4398 20.6611C46.6234 20.6624 46.702 20.7535 46.7298 20.9334C46.802 21.3912 46.7729 21.426 46.3157 21.426Z" fill="#F6F6F6"/>
<path d="M89.3555 20.9802C89.3054 20.3204 88.9426 19.9671 88.2657 19.9443C87.3191 19.9133 86.3693 19.9088 85.4232 19.9475C84.8534 19.9703 84.3816 20.2077 84.3354 20.9796C84.3063 21.4716 84.3196 21.9668 84.3265 22.4607C84.3284 22.6 84.3601 22.7444 84.4057 22.8767C84.5596 23.3256 84.9274 23.5042 85.3593 23.5308C85.8519 23.5606 86.3484 23.5378 86.8429 23.5378V23.539C87.333 23.539 87.8237 23.565 88.3113 23.5327C88.9667 23.489 89.3073 23.1591 89.3555 22.5082C89.3935 22.001 89.3941 21.4868 89.3555 20.9802ZM88.4031 22.3391C88.3848 22.6266 88.2144 22.7665 87.9175 22.7773C87.5597 22.7906 87.2007 22.7804 86.8423 22.7804V22.783C86.4997 22.783 86.1565 22.7925 85.8139 22.7804C85.4669 22.7684 85.3131 22.6392 85.2896 22.2986C85.2637 21.9326 85.2637 21.5628 85.2877 21.1968C85.3099 20.8663 85.4188 20.7314 85.7455 20.7206C86.4921 20.6966 87.2406 20.7054 87.9871 20.7282C88.253 20.7365 88.3867 20.8789 88.4025 21.1423C88.4259 21.54 88.4278 21.9414 88.4031 22.3391Z" fill="#F6F6F6"/>
<path d="M55.8766 19.6461C55.8804 19.7987 55.8133 19.862 55.6581 19.8608C55.0515 19.8563 54.4455 19.8589 53.8389 19.8589H53.6331V20.0609C53.6331 21.1392 53.6338 22.2176 53.6331 23.2959C53.6331 23.5543 53.6173 23.5688 53.3539 23.5688C53.1747 23.5695 52.9955 23.5701 52.8163 23.5688C52.6365 23.5676 52.6048 23.5346 52.6048 23.339C52.6035 22.4816 52.6042 21.6243 52.6042 20.7669V19.8589H51.6993C51.3251 19.8589 50.9509 19.8608 50.5766 19.8582C50.3987 19.857 50.3639 19.8215 50.3613 19.6442C50.3582 19.4707 50.3588 19.2972 50.3607 19.1237C50.3639 18.9401 50.3981 18.9059 50.588 18.9053C51.2738 18.904 51.9589 18.9046 52.6447 18.9046H55.6024C55.8519 18.9046 55.8747 18.9268 55.8753 19.1725C55.8766 19.3302 55.8721 19.4878 55.8766 19.6461Z" fill="#F6F6F6"/>
<path d="M84.588 18.9464C84.569 19.0021 84.5626 19.0679 84.5284 19.1129C83.8724 19.969 83.2259 20.8333 82.5478 21.6717C82.2888 21.9921 82.1355 22.3093 82.1875 22.726C82.2147 22.9432 82.1894 23.1673 82.1932 23.3877C82.1957 23.5137 82.145 23.5719 82.0159 23.57C81.7949 23.5662 81.5733 23.5669 81.3516 23.57C81.2237 23.5719 81.1731 23.5143 81.1743 23.3877C81.1775 23.0305 81.1819 22.6721 81.1705 22.315C81.168 22.2181 81.1351 22.1061 81.0775 22.0294C80.3486 21.0632 79.6135 20.1026 78.8802 19.1401C78.8581 19.1104 78.834 19.0825 78.8137 19.0515C78.7605 18.9717 78.7865 18.9109 78.8777 18.909C79.1829 18.9039 79.4887 18.9033 79.7939 18.916C79.8471 18.9185 79.9098 18.9831 79.9478 19.0337C80.5114 19.7885 81.0711 20.5458 81.6321 21.3019C81.6505 21.3266 81.6714 21.3494 81.7031 21.3867C81.9506 21.0556 82.1925 20.732 82.4332 20.4091C82.7732 19.9532 83.1145 19.4991 83.4501 19.0407C83.5235 18.9407 83.6084 18.8995 83.7306 18.9027C83.9623 18.909 84.1941 18.902 84.4259 18.9065C84.4803 18.9077 84.5341 18.9324 84.588 18.9464Z" fill="#F6F6F6"/>
<path d="M31.2003 23.6942C31.1991 23.8512 31.1889 24.0108 31.1573 24.164C31.0477 24.7003 30.7261 24.9663 30.115 25.0151C29.8111 25.0397 29.5046 25.0328 29.1994 25.0416C29.081 25.0448 29.0234 24.9929 29.0253 24.8726C29.0278 24.7206 29.0291 24.568 29.0253 24.4154C29.0221 24.285 29.0867 24.2387 29.2095 24.2394C29.3938 24.2406 29.5787 24.2413 29.7629 24.2311C30.0371 24.2159 30.1891 24.0741 30.2246 23.8063C30.2404 23.6866 30.2499 23.5656 30.2505 23.4447C30.2524 22.3511 30.2511 21.2576 30.2518 20.1634C30.2518 19.9323 30.2765 19.9076 30.5019 19.907C30.6494 19.9063 30.797 19.9063 30.9445 19.907C31.1674 19.9076 31.2029 19.9412 31.2029 20.1603C31.2035 20.77 31.2029 21.3804 31.2029 21.9902C31.2029 22.5582 31.206 23.1262 31.201 23.6942H31.2003Z" fill="#F6F6F6"/>
<path d="M65.2757 20.5192C65.284 20.6661 65.2169 20.7098 65.0782 20.7085C64.5615 20.7041 64.0448 20.706 63.5281 20.7073C63.423 20.7079 63.3172 20.7123 63.2121 20.7206C62.8221 20.7516 62.6669 20.9105 62.6638 21.3063C62.6574 21.9483 62.6606 22.5904 62.66 23.2325C62.6595 23.4566 62.5451 23.5689 62.3168 23.5694C62.1958 23.5694 62.0743 23.5694 61.9533 23.5687C61.7209 23.5687 61.7076 23.5561 61.707 23.3306C61.7064 22.9463 61.707 22.5626 61.707 22.1782C61.7019 22.1782 61.6962 22.1782 61.6912 22.1776C61.7076 21.7261 61.7051 21.2727 61.7469 20.8238C61.7874 20.3913 62.0521 20.1127 62.4732 20.0101C62.7068 19.9537 62.9506 19.9176 63.1906 19.9126C63.8175 19.8986 64.4456 19.9107 65.0731 19.9043C65.2257 19.9031 65.2827 19.9607 65.2757 20.1089C65.2688 20.245 65.2675 20.3824 65.2757 20.5192Z" fill="#F6F6F6"/>
<path d="M91.1171 20.1723C91.1177 21.224 91.1177 22.2758 91.1171 23.3282C91.1171 23.5555 91.1032 23.5688 90.8739 23.5688C90.7321 23.5694 90.5896 23.5694 90.4472 23.5688C90.1736 23.5688 90.1698 23.565 90.1692 23.2984V21.0891C90.1692 20.3318 90.1692 19.5745 90.1698 18.8172C90.1698 18.6082 90.1989 18.5797 90.406 18.5791C90.5744 18.5785 90.7435 18.5842 90.9119 18.5778C91.0607 18.5721 91.1203 18.6348 91.119 18.7836C91.1146 19.2465 91.1171 19.7094 91.1171 20.1723Z" fill="#F6F6F6"/>
<path d="M29.3097 21.0727C29.3097 21.8294 29.3097 22.5867 29.3091 23.3441C29.3091 23.5511 29.2907 23.5682 29.0824 23.5688C28.9032 23.5695 28.724 23.565 28.5448 23.5707C28.415 23.5745 28.3618 23.5144 28.3631 23.3915C28.3637 23.3599 28.3631 23.3289 28.3631 23.2972V18.8641C28.3631 18.5937 28.3776 18.5792 28.648 18.5792C28.8006 18.5792 28.9538 18.5842 29.1064 18.5779C29.2565 18.5716 29.3116 18.6374 29.311 18.785C29.3078 19.5473 29.3097 20.3097 29.3097 21.0727Z" fill="#F6F6F6"/>
<path d="M82.6087 17.6286C82.3864 17.9541 82.1629 18.2789 81.9292 18.5962C81.8894 18.6506 81.802 18.681 81.7304 18.6975C81.6557 18.7146 81.5734 18.7013 81.4949 18.7013C81.493 18.7095 81.4917 18.7171 81.4898 18.7247C81.3708 18.6994 81.2523 18.6734 81.1333 18.6475C81.1833 18.5468 81.2283 18.4423 81.2853 18.3454C81.4265 18.1048 81.574 17.8693 81.7165 17.6293C81.7817 17.5197 81.8691 17.4659 82.0008 17.4716C82.1743 17.4786 82.3484 17.4697 82.5219 17.4741C82.6517 17.4779 82.6796 17.5242 82.6087 17.6286Z" fill="#F6F6F6"/>
<path d="M31.2022 19.3092C31.2022 19.4251 31.1452 19.4853 31.0293 19.4859C30.8293 19.4872 30.6292 19.4859 30.4291 19.4859C30.3062 19.4859 30.2442 19.4302 30.2499 19.3023C30.2543 19.2079 30.2511 19.1129 30.2511 19.0186C30.2511 18.935 30.2499 18.8508 30.2511 18.7666C30.253 18.5855 30.2841 18.5519 30.4588 18.55C30.6431 18.5475 30.8274 18.5507 31.0116 18.5494C31.1427 18.5481 31.2047 18.6102 31.2028 18.7413C31.2003 18.9306 31.2022 19.1193 31.2022 19.3086V19.3092Z" fill="#F6F6F6"/>
</svg>
