<svg width="264" height="71" viewBox="0 0 264 71" fill="none" xmlns="http://www.w3.org/2000/svg">
<path d="M167.306 10.9668H136.375C134.967 10.9668 133.826 12.1078 133.826 13.5162V31.3797C133.826 32.7881 134.967 33.9291 136.375 33.9291H167.306C168.715 33.9291 169.856 32.7881 169.856 31.3797V13.5162C169.856 12.1078 168.715 10.9668 167.306 10.9668ZM140.672 29.0977V15.7981C140.672 15.7981 140.725 15.6912 140.779 15.6912H162.885C162.885 15.6912 162.992 15.7447 162.992 15.7981V29.0977C162.992 29.0977 162.939 29.2225 162.885 29.2225H140.779C140.779 29.2225 140.672 29.169 140.672 29.0977Z" fill="#242424"/>
<path d="M44.9003 10.9668H38.5179C38.3931 10.9668 38.2861 11.0738 38.2861 11.1986V29.0977C38.2861 29.0977 38.2327 29.2225 38.1792 29.2225H17.1245C17.1245 29.2225 17.0175 29.169 17.0175 29.0977V25.3004C17.0175 25.1756 16.9106 25.0686 16.7858 25.0686H10.3856C10.2608 25.0686 10.1538 25.1756 10.1538 25.3004V31.3797C10.1538 32.7881 11.2948 33.9291 12.7032 33.9291H42.5827C43.9911 33.9291 45.132 32.7881 45.132 31.3797V11.1986C45.132 11.0738 45.0251 10.9668 44.9003 10.9668Z" fill="#242424"/>
<path d="M127.479 10.9668H92.3402C92.2154 10.9668 92.1084 11.0738 92.1084 11.1986V15.4594C92.1084 15.5842 92.2154 15.6912 92.3402 15.6912H106.353C106.353 15.6912 106.478 15.7447 106.478 15.7981V33.6973C106.478 33.8221 106.585 33.9291 106.709 33.9291H113.092C113.217 33.9291 113.324 33.8221 113.324 33.6973V15.7981C113.324 15.7981 113.377 15.6912 113.43 15.6912H127.461C127.586 15.6912 127.693 15.5842 127.693 15.4594V11.1986C127.693 11.0738 127.586 10.9668 127.461 10.9668" fill="#242424"/>
<path d="M210.539 10.9668H204.157C204.032 10.9668 203.925 11.0738 203.925 11.1986V29.0977C203.925 29.0977 203.871 29.2225 203.818 29.2225H182.941C182.941 29.2225 182.834 29.169 182.834 29.0977V11.1986C182.834 11.0738 182.727 10.9668 182.603 10.9668H176.22C176.096 10.9668 175.989 11.0738 175.989 11.1986V31.3797C175.989 32.7881 177.13 33.9291 178.538 33.9291H208.239C209.648 33.9291 210.788 32.7881 210.788 31.3797V11.1986C210.788 11.0738 210.682 10.9668 210.557 10.9668" fill="#242424"/>
<path d="M252.47 33.519L239.42 24.5694H249.582C250.99 24.5694 252.131 23.4285 252.131 22.0201V13.5162C252.131 12.1078 250.99 10.9668 249.582 10.9668H217.099C216.975 10.9668 216.868 11.0738 216.868 11.1986V33.6973C216.868 33.8221 216.975 33.9291 217.099 33.9291H223.482C223.607 33.9291 223.714 33.8221 223.714 33.6973V20.7008L242.878 33.8399C242.985 33.9112 243.092 33.9469 243.217 33.9469H252.327C252.559 33.9469 252.648 33.6438 252.452 33.519M223.856 15.6912H245.178C245.178 15.6912 245.303 15.7447 245.303 15.7981V19.7381C245.303 19.7381 245.25 19.8451 245.178 19.8451H223.856C223.856 19.8451 223.749 19.7916 223.749 19.7381V15.7981C223.749 15.7981 223.803 15.6912 223.856 15.6912Z" fill="#242424"/>
<path d="M85.7796 15.6912C85.9044 15.6912 86.0114 15.5842 86.0114 15.4594V11.1986C86.0114 11.0738 85.9044 10.9668 85.7796 10.9668H53.7965C52.3881 10.9668 51.2471 12.1078 51.2471 13.5162V31.3797C51.2471 32.7881 52.3881 33.9291 53.7965 33.9291H85.7796C85.9044 33.9291 86.0114 33.8221 86.0114 33.6973V29.4543C86.0114 29.3295 85.9044 29.2225 85.7796 29.2225H58.1999C58.1999 29.2225 58.0751 29.169 58.0751 29.0977V24.926C58.0751 24.926 58.1286 24.8012 58.1999 24.8012H83.9968C84.1216 24.8012 84.2286 24.6942 84.2286 24.5694V20.3264C84.2286 20.2016 84.1216 20.0947 83.9968 20.0947H58.1999C58.1999 20.0947 58.0751 20.0412 58.0751 19.9877V15.7981C58.0751 15.7981 58.1286 15.6912 58.1999 15.6912H85.7796Z" fill="#242424"/>
<path d="M32.7595 51.5671H10.1538V52.3694H32.7595V51.5671Z" fill="#242424"/>
<path d="M252.452 51.5671H229.846V52.3694H252.452V51.5671Z" fill="#242424"/>
<path d="M43.1364 48.899C43.0838 50.1701 43.0838 51.4473 43.138 52.7184C43.1782 53.6443 43.6582 54.1103 44.5918 54.149C46.0471 54.2109 47.504 54.2001 48.9593 54.2171C49.5012 54.2218 50.0431 54.228 50.585 54.2125C51.1532 54.1986 51.3653 54.0205 51.4164 53.4647C51.4613 52.9801 51.4427 52.4893 51.4551 52.0016C51.4628 51.7075 51.2832 51.6811 51.0495 51.6811C49.6173 51.6873 48.1868 51.6842 46.7547 51.6842C46.157 51.6842 46.1199 51.6455 46.1183 51.0464C46.1168 50.7506 46.123 50.4549 46.1183 50.1592C46.1137 49.8759 46.2344 49.7273 46.5317 49.7273C48.7751 49.7288 51.0185 49.7288 53.2619 49.7288C53.5808 49.7288 53.748 49.8883 53.7449 50.1995C53.7372 51.7167 53.7805 53.2387 53.6907 54.7513C53.6211 55.9326 52.9352 56.459 51.7322 56.4714H48.1744C48.1728 56.4466 48.1728 56.4203 48.1728 56.394C46.7175 56.394 45.2591 56.4559 43.8068 56.3754C42.576 56.3088 41.5077 55.7994 41.0061 54.5794C40.7816 54.0313 40.6391 53.4121 40.6314 52.8222C40.6097 51.2058 40.585 49.5802 40.7382 47.9731C40.8915 46.3537 41.9025 45.4464 43.5405 45.2033C44.1242 45.1166 44.7203 45.0764 45.3117 45.0733C47.9158 45.0593 50.5215 45.0671 53.1256 45.0671C53.7279 45.0671 53.7821 45.1244 53.7836 45.7328C53.7836 46.0812 53.7836 46.428 53.7836 46.7763C53.7805 47.3337 53.7171 47.4003 53.1628 47.4003C50.6345 47.4018 48.1078 47.4003 45.5795 47.4018C45.2714 47.4018 44.9603 47.4096 44.6522 47.4328C43.6953 47.504 43.1767 47.9514 43.1364 48.899Z" fill="#242424"/>
<path d="M102.705 50.6794C102.703 50.3713 102.675 50.0616 102.624 49.7582C102.457 48.7565 101.918 48.0458 100.907 47.7966C100.324 47.6541 99.7183 47.5457 99.1191 47.5334C97.4052 47.4993 95.6898 47.4993 93.9743 47.5334C93.3767 47.5457 92.7698 47.6541 92.1877 47.7997C91.1952 48.0474 90.5729 48.7441 90.5016 49.7318C90.4072 51.0478 90.4134 52.3778 90.5016 53.6938C90.562 54.5995 91.1163 55.2915 92.0204 55.5532C92.6305 55.7297 93.2792 55.8443 93.9124 55.8567C95.8972 55.8969 97.8836 55.8752 99.87 55.8768H100.359C100.375 55.9821 100.389 56.0316 100.39 56.0827C100.454 57.7052 100.07 58.1093 98.4503 58.1109C96.1542 58.114 93.8597 58.1109 91.5653 58.1109C91.4615 58.1109 91.3578 58.114 91.2556 58.1124C90.9878 58.1093 90.8484 58.2239 90.8577 58.5072C90.8686 58.8293 90.8593 59.1513 90.8608 59.4733C90.8608 60.0431 90.8856 60.0694 91.4399 60.0694C93.8644 60.0709 96.2889 60.0787 98.7119 60.0647C99.277 60.0617 99.8483 60.0229 100.406 59.9331C101.649 59.7319 102.377 59.0708 102.601 57.9653C102.672 57.6139 102.703 57.2501 102.705 56.8924C102.714 54.8209 102.711 52.7494 102.705 50.6778V50.6794ZM100.39 54.0777H99.4442C97.7969 54.0777 96.148 54.0808 94.5007 54.0731C94.2066 54.0715 93.9077 54.0437 93.6182 53.9879C93.1584 53.8997 92.8147 53.6148 92.7915 53.1442C92.7481 52.2369 92.7512 51.325 92.7837 50.4162C92.8023 49.9176 93.163 49.6436 93.626 49.5368C93.8876 49.4779 94.1601 49.4485 94.428 49.447C95.8446 49.4377 97.2612 49.4423 98.6778 49.4439C98.8311 49.4439 98.9875 49.4454 99.1392 49.4702C100.077 49.6219 100.378 49.961 100.387 50.9101C100.398 51.9489 100.39 52.9862 100.39 54.0777Z" fill="#242424"/>
<path d="M185.303 49.905C185.232 48.7051 184.501 47.9542 183.309 47.7204C182.781 47.6167 182.239 47.5362 181.702 47.5284C180.053 47.5052 178.403 47.5083 176.752 47.5269C176.252 47.5331 175.749 47.595 175.257 47.6863C174.26 47.869 173.513 48.3846 173.232 49.4064C173.139 49.7377 173.072 50.0892 173.071 50.4314C173.055 53.4938 173.06 56.5546 173.053 59.617C173.053 59.9251 173.196 60.0691 173.496 60.0691C173.896 60.0706 174.295 60.0722 174.695 60.0722C175.367 60.0706 175.385 60.0521 175.385 59.3755V56.4726H175.87C177.752 56.471 179.633 56.4772 181.516 56.4679C181.967 56.4664 182.419 56.4385 182.866 56.3874C184.335 56.2202 185.192 55.5018 185.302 54.1038C185.41 52.7119 185.387 51.2999 185.303 49.905ZM183.019 53.3653C182.99 54.0418 182.634 54.4335 181.954 54.466C180.849 54.5171 179.739 54.48 178.632 54.48C178.632 54.497 178.632 54.514 178.63 54.5326C177.664 54.5326 176.696 54.5233 175.729 54.5373C175.455 54.5419 175.377 54.449 175.38 54.1843C175.394 53.181 175.385 52.1762 175.39 51.173C175.39 50.9934 175.41 50.8122 175.435 50.6342C175.528 49.9452 175.874 49.5442 176.557 49.5303C178.336 49.4978 180.115 49.4962 181.894 49.5318C182.597 49.5442 182.99 49.9607 183.021 50.6651C183.06 51.5631 183.058 52.4657 183.021 53.3653H183.019Z" fill="#242424"/>
<path d="M171.332 51.2878C171.329 50.8512 171.307 50.413 171.265 49.9795C171.151 48.7735 170.541 48.0241 169.359 47.7532C168.714 47.6061 168.037 47.5364 167.373 47.5287C165.143 47.5008 162.912 47.5178 160.683 47.5178C160.619 47.5178 160.554 47.5194 160.489 47.5178C160.234 47.5163 160.115 47.6371 160.121 47.8972C160.129 48.309 160.129 48.7208 160.121 49.1327C160.116 49.3602 160.218 49.4655 160.44 49.4686C160.582 49.4717 160.723 49.4733 160.866 49.4733C163.134 49.4856 165.402 49.481 167.669 49.5151C168.551 49.5275 169.096 49.851 168.963 51.2429H168.519C166.572 51.2429 164.626 51.2413 162.68 51.246C162.332 51.246 161.983 51.2646 161.638 51.2986C160.635 51.3962 159.961 51.9706 159.898 52.8469C159.852 53.5111 159.853 54.1845 159.903 54.8472C159.966 55.6894 160.472 56.2143 161.296 56.3768C161.573 56.431 161.858 56.4666 162.14 56.4666C164.832 56.4744 167.526 56.4728 170.22 56.4697C171.013 56.4697 171.256 56.239 171.325 55.4541C171.338 55.3132 171.335 55.1708 171.335 55.0299C171.336 53.782 171.341 52.5341 171.332 51.2878ZM168.988 54.2681C168.977 54.5499 168.807 54.6985 168.503 54.697C166.648 54.6924 164.793 54.7001 162.939 54.6908C162.38 54.6877 162.144 54.4353 162.126 53.8826C162.123 53.7541 162.123 53.6256 162.126 53.4971C162.141 52.997 162.34 52.7664 162.837 52.706C163.052 52.6797 163.273 52.6905 163.491 52.6905C165.307 52.6889 167.124 52.6905 168.994 52.6905C168.994 53.2479 169.008 53.7588 168.988 54.2681Z" fill="#242424"/>
<path d="M148.415 50.1174C148.367 48.7689 147.679 48.0351 146.368 47.7115C146.131 47.6527 145.888 47.5923 145.647 47.5907C142.98 47.5598 140.313 47.5412 137.645 47.5164C137.348 47.5133 137.224 47.6496 137.229 47.9391C137.235 48.3246 137.235 48.7101 137.229 49.0956C137.224 49.3557 137.346 49.4749 137.602 49.4718C137.782 49.4703 137.963 49.4734 138.144 49.4734C140.347 49.4842 142.552 49.4672 144.755 49.5152C145.862 49.5399 146.243 50.0756 146.082 51.243H145.603C143.81 51.243 142.019 51.2399 140.228 51.2461C139.751 51.2476 139.272 51.2569 138.799 51.2987C137.633 51.3978 137.029 52.0403 136.992 53.2015C136.98 53.587 136.983 53.9741 136.989 54.3596C137.007 55.7282 137.605 56.3599 138.972 56.4605C139.166 56.4745 139.359 56.4714 139.553 56.4714C141.112 56.4729 142.672 56.4729 144.231 56.4714C145.301 56.4714 146.373 56.4776 147.442 56.4683C148.105 56.4621 148.427 56.2051 148.433 55.5966C148.45 53.7697 148.478 51.9413 148.415 50.1174ZM146.114 54.2822C146.108 54.5624 145.936 54.694 145.659 54.694C143.779 54.694 141.9 54.7018 140.02 54.6878C139.492 54.6832 139.259 54.3983 139.235 53.8378C139.203 53.0962 139.382 52.8021 139.93 52.7092C140.019 52.6937 140.11 52.6921 140.2 52.6921C142.079 52.6921 143.959 52.6921 145.84 52.6921C145.914 52.6921 145.99 52.7014 146.117 52.7107C146.117 53.2603 146.125 53.7728 146.114 54.2837V54.2822Z" fill="#242424"/>
<path d="M87.7676 52.6861C88.503 52.6845 88.757 52.4492 88.7585 51.72C88.7616 50.9629 88.7539 50.2027 88.6966 49.4472C88.6083 48.2813 88.0293 47.6326 86.8681 47.6048C84.5643 47.5475 82.2575 47.532 79.9553 47.6141C78.3993 47.6698 77.4533 48.5198 77.3527 49.9085C77.2536 51.3019 77.2675 52.7108 77.348 54.1073C77.4177 55.3165 78.1872 56.0798 79.3793 56.3089C79.8577 56.4003 80.3485 56.4576 80.8362 56.4637C82.3566 56.4839 83.8785 56.4715 85.3988 56.4715C86.2751 56.473 87.153 56.4606 88.0293 56.4777C88.3668 56.4839 88.4984 56.36 88.4798 56.0271C88.4628 55.7067 88.4783 55.3846 88.4767 55.0626C88.4736 54.5579 88.4519 54.5331 87.9565 54.5331C85.8045 54.5316 83.6509 54.5362 81.4988 54.5285C81.1644 54.5285 80.8285 54.4975 80.4987 54.4433C80.0853 54.3767 79.7772 54.1321 79.6735 53.7249C79.593 53.4091 79.5961 53.0731 79.5574 52.6876H80.1101C82.6616 52.6876 85.2146 52.6892 87.7676 52.6861ZM79.5574 51.2323C79.5961 50.8328 79.5899 50.4829 79.6719 50.1532C79.7942 49.6531 80.2014 49.4503 80.6752 49.379C80.9167 49.3434 81.1644 49.3357 81.409 49.3357C82.7498 49.331 84.0906 49.3248 85.4313 49.3357C86.255 49.3434 86.4656 49.5602 86.4671 50.3699C86.4671 51.367 86.5693 51.2261 85.6017 51.2292C83.7577 51.2354 81.9138 51.2323 80.0698 51.2323H79.5574Z" fill="#242424"/>
<path d="M66.7753 49.1079C66.7103 48.3818 66.2551 47.8802 65.5259 47.7052C65.1156 47.6077 64.6883 47.5334 64.2687 47.5287C62.5022 47.5101 60.7357 47.5024 58.9707 47.5334C58.3963 47.5442 57.8157 47.6433 57.2568 47.7826C56.221 48.0396 55.577 48.7456 55.5088 49.7938C55.4175 51.1887 55.385 52.5976 55.4701 53.9926C55.5506 55.3148 56.2411 56.0332 57.4317 56.2964C57.8451 56.3877 58.2724 56.4558 58.6935 56.4589C61.1955 56.476 63.6959 56.4667 66.1978 56.476C66.5106 56.4775 66.6112 56.3382 66.6097 56.0595C66.6066 55.7251 66.6127 55.3906 66.6081 55.0562C66.6035 54.5747 66.5617 54.5329 66.0724 54.5329C63.9188 54.5314 61.7668 54.536 59.6132 54.5283C59.2927 54.5283 58.9676 54.502 58.6517 54.4478C58.1362 54.3595 57.8389 54.0638 57.7677 53.5591C57.729 53.2866 57.7615 53.0033 57.7615 52.6874H64.535C65.0506 52.6859 65.5677 52.6967 66.0833 52.6797C66.5787 52.6627 66.8512 52.4537 66.8558 51.9969C66.8651 51.0339 66.862 50.0663 66.7753 49.1079ZM63.7563 51.2275C61.9015 51.2383 60.0482 51.2321 58.1935 51.2321H57.7631C57.7445 51.1438 57.7367 51.1206 57.7352 51.0943C57.6764 49.7597 58.0201 49.368 59.3562 49.3433C60.7728 49.3169 62.1895 49.3247 63.6045 49.3386C64.3802 49.3463 64.5784 49.5538 64.5939 50.3388C64.6171 51.4442 64.6078 51.2228 63.7563 51.2275Z" fill="#242424"/>
<path d="M115.832 49.3977C115.753 48.3666 115.295 47.882 114.286 47.6497C113.925 47.5677 113.547 47.5274 113.176 47.5243C111.5 47.5119 109.824 47.5073 108.147 47.5274C107.634 47.5336 107.116 47.5878 106.613 47.6853C105.293 47.9377 104.589 48.6375 104.488 49.9659C104.391 51.2323 104.371 52.5127 104.442 53.7807C104.529 55.2732 105.185 56.0257 106.45 56.2997C106.839 56.3849 107.24 56.4545 107.636 56.4576C110.163 56.4747 112.691 56.4669 115.218 56.4762C115.512 56.4762 115.608 56.3353 115.608 56.0752C115.608 55.7671 115.609 55.4575 115.608 55.1494C115.608 54.5548 115.588 54.5332 115.009 54.5332C112.881 54.5332 110.753 54.5347 108.625 54.5301C108.33 54.5285 108.032 54.5068 107.74 54.4635C107.134 54.3737 106.82 54.0579 106.743 53.4587C106.712 53.2203 106.736 52.9756 106.736 52.6877H107.207C109.721 52.6877 112.236 52.6877 114.752 52.6861C114.905 52.6861 115.063 52.6923 115.215 52.6691C115.628 52.6087 115.852 52.3966 115.86 51.9817C115.874 51.1193 115.897 50.2539 115.832 49.3977ZM112.569 51.2323H106.73C106.73 50.9459 106.715 50.7152 106.733 50.4876C106.789 49.8265 107.164 49.3992 107.848 49.3822C109.522 49.3419 111.197 49.3481 112.872 49.3621C113.321 49.3652 113.513 49.5881 113.581 50.0278C113.758 51.1472 113.686 51.2323 112.569 51.2323Z" fill="#242424"/>
<path d="M217.804 50.1422C217.681 48.529 216.794 47.6651 215.139 47.6093C212.824 47.5335 210.502 47.5226 208.189 47.6171C206.796 47.6728 205.642 48.2534 205.529 50.1407C205.458 51.3437 205.49 52.5544 205.507 53.762C205.512 54.1026 205.59 54.4556 205.701 54.7792C206.077 55.8769 206.977 56.3135 208.033 56.3785C209.237 56.4513 210.451 56.3955 211.66 56.3955V56.3986C212.858 56.3986 214.058 56.4621 215.25 56.3831C216.853 56.2763 217.686 55.4697 217.804 53.8781C217.896 52.638 217.898 51.3808 217.804 50.1422ZM215.475 53.4647C215.43 54.1676 215.014 54.5098 214.288 54.5361C213.413 54.5686 212.535 54.5438 211.659 54.5438V54.55C210.821 54.55 209.982 54.5733 209.144 54.5438C208.296 54.5144 207.92 54.1986 207.862 53.3656C207.799 52.4708 207.799 51.5666 207.858 50.6717C207.912 49.8635 208.178 49.5338 208.977 49.5074C210.802 49.4486 212.632 49.4703 214.458 49.526C215.108 49.5462 215.435 49.8945 215.473 50.5386C215.531 51.5109 215.535 52.4924 215.475 53.4647Z" fill="#242424"/>
<path d="M135.945 46.8803C135.955 47.2534 135.791 47.4082 135.411 47.4051C133.928 47.3943 132.446 47.4005 130.963 47.4005H130.46V47.8944C130.46 50.531 130.462 53.1676 130.46 55.8043C130.46 56.4359 130.421 56.4716 129.777 56.4716C129.339 56.4731 128.901 56.4747 128.463 56.4716C128.023 56.4685 127.946 56.388 127.946 55.9095C127.943 53.8132 127.944 51.7169 127.944 49.6206V47.4005H125.732C124.817 47.4005 123.902 47.4051 122.987 47.3989C122.552 47.3958 122.466 47.3091 122.46 46.8756C122.453 46.4514 122.454 46.0272 122.459 45.603C122.466 45.154 122.55 45.0704 123.015 45.0688C124.691 45.0657 126.366 45.0673 128.043 45.0673H135.275C135.885 45.0673 135.941 45.1215 135.942 45.7222C135.945 46.1077 135.935 46.4932 135.945 46.8803Z" fill="#242424"/>
<path d="M206.147 45.1693C206.1 45.3055 206.085 45.4665 206.001 45.5764C204.397 47.6696 202.817 49.783 201.158 51.8328C200.525 52.6162 200.151 53.3919 200.278 54.4106C200.344 54.9417 200.282 55.4898 200.291 56.0286C200.298 56.3366 200.174 56.4791 199.858 56.4744C199.318 56.4652 198.776 56.4667 198.234 56.4744C197.921 56.4791 197.797 56.3382 197.8 56.0286C197.808 55.1553 197.819 54.279 197.791 53.4058C197.785 53.169 197.704 52.8949 197.563 52.7076C195.781 50.345 193.984 47.9963 192.191 45.643C192.137 45.5702 192.078 45.5021 192.029 45.4263C191.899 45.2312 191.962 45.0826 192.185 45.0779C192.931 45.0655 193.679 45.064 194.425 45.0949C194.555 45.1011 194.709 45.2591 194.801 45.3829C196.179 47.2284 197.548 49.0801 198.92 50.9287C198.965 50.9891 199.016 51.0448 199.093 51.1361C199.699 50.3264 200.29 49.5353 200.878 48.7457C201.71 47.6309 202.544 46.5209 203.365 45.3999C203.544 45.1553 203.752 45.0547 204.051 45.0624C204.617 45.0779 205.184 45.0609 205.751 45.0717C205.884 45.0748 206.015 45.1352 206.147 45.1693Z" fill="#242424"/>
<path d="M75.6107 56.778C75.6076 57.1619 75.5828 57.5521 75.5054 57.9268C75.2376 59.2381 74.4511 59.8884 72.957 60.0076C72.2139 60.068 71.4645 60.0509 70.7183 60.0726C70.4288 60.0804 70.2879 59.9534 70.2925 59.6592C70.2987 59.2877 70.3018 58.9145 70.2925 58.5414C70.2848 58.2225 70.4427 58.1095 70.743 58.111C71.1936 58.1141 71.6457 58.1157 72.0962 58.0909C72.7666 58.0537 73.1382 57.7069 73.2249 57.052C73.2636 56.7594 73.2868 56.4637 73.2883 56.168C73.293 53.4942 73.2899 50.8204 73.2914 48.145C73.2914 47.5799 73.3518 47.5196 73.903 47.518C74.2637 47.5165 74.6245 47.5165 74.9852 47.518C75.5302 47.5196 75.6169 47.6016 75.6169 48.1373C75.6184 49.6282 75.6169 51.1207 75.6169 52.6117C75.6169 54.0005 75.6246 55.3892 75.6122 56.778H75.6107Z" fill="#242424"/>
<path d="M158.927 49.0149C158.948 49.374 158.783 49.4809 158.444 49.4778C157.181 49.4669 155.918 49.4716 154.654 49.4747C154.397 49.4762 154.139 49.4871 153.882 49.5072C152.928 49.5831 152.549 49.9717 152.541 50.9393C152.525 52.5092 152.533 54.0791 152.532 55.649C152.531 56.1971 152.251 56.4717 151.692 56.4727C151.397 56.4727 151.1 56.4727 150.804 56.4711C150.236 56.4711 150.203 56.4402 150.202 55.889C150.2 54.9492 150.202 54.011 150.202 53.0712C150.189 53.0712 150.175 53.0712 150.163 53.0697C150.203 51.9658 150.197 50.8573 150.299 49.7596C150.398 48.7021 151.045 48.0209 152.075 47.7701C152.646 47.6323 153.242 47.544 153.829 47.5317C155.362 47.4976 156.898 47.527 158.432 47.5115C158.805 47.5084 158.944 47.6493 158.927 48.0116C158.91 48.3445 158.907 48.6804 158.927 49.0149Z" fill="#242424"/>
<path d="M222.111 48.1666C222.112 50.7383 222.112 53.3099 222.111 55.883C222.111 56.4389 222.077 56.4714 221.516 56.4714C221.169 56.4729 220.821 56.4729 220.473 56.4714C219.804 56.4714 219.795 56.4621 219.793 55.8103V50.4085C219.793 48.5568 219.793 46.7051 219.795 44.8534C219.795 44.3425 219.866 44.2728 220.372 44.2713C220.784 44.2698 221.197 44.2837 221.609 44.2682C221.973 44.2543 222.118 44.4075 222.115 44.7714C222.104 45.9031 222.111 47.0349 222.111 48.1666Z" fill="#242424"/>
<path d="M70.9878 50.3684C70.9878 52.2185 70.9878 54.0702 70.9862 55.9219C70.9862 56.4282 70.9413 56.47 70.4319 56.4715C69.9938 56.4731 69.5556 56.4622 69.1175 56.4762C68.8001 56.4854 68.6701 56.3384 68.6731 56.038C68.6747 55.9606 68.6731 55.8847 68.6731 55.8073V44.9682C68.6731 44.3071 68.7088 44.2714 69.3699 44.2714C69.743 44.2714 70.1177 44.2838 70.4908 44.2684C70.8577 44.2529 70.9924 44.4139 70.9909 44.7746C70.9831 46.6387 70.9878 48.5028 70.9878 50.3684Z" fill="#242424"/>
<path d="M201.307 41.9472C200.764 42.743 200.217 43.5373 199.646 44.3129C199.549 44.4461 199.335 44.5204 199.16 44.5606C198.977 44.6024 198.776 44.5699 198.584 44.5699C198.579 44.5901 198.576 44.6086 198.572 44.6272C198.281 44.5653 197.991 44.5018 197.7 44.4383C197.822 44.1922 197.932 43.9367 198.072 43.6998C198.417 43.1115 198.778 42.5355 199.126 41.9488C199.285 41.6809 199.499 41.5493 199.821 41.5633C200.245 41.5803 200.671 41.5586 201.095 41.5695C201.413 41.5787 201.481 41.6918 201.307 41.9472Z" fill="#242424"/>
<path d="M75.6153 46.0566C75.6153 46.3399 75.476 46.487 75.1926 46.4885C74.7034 46.4916 74.2142 46.4885 73.7249 46.4885C73.4246 46.4885 73.2728 46.3523 73.2868 46.0395C73.2976 45.8088 73.2899 45.5766 73.2899 45.3459C73.2899 45.1416 73.2868 44.9356 73.2899 44.7297C73.2945 44.2869 73.3704 44.2049 73.7977 44.2002C74.2482 44.194 74.6988 44.2018 75.1493 44.1987C75.4698 44.1956 75.6215 44.3473 75.6169 44.6678C75.6107 45.1307 75.6153 45.5921 75.6153 46.055V46.0566Z" fill="#242424"/>
</svg>
