<svg width="168" height="84" viewBox="0 0 168 84" fill="none" xmlns="http://www.w3.org/2000/svg">
<path d="M47.2415 34.4948L65.2915 3.24097H37.4382C29.6698 3.44549 27.6385 4.97768 24.6781 10.0942L6.75979 41.1332C4.53777 44.9359 3.23438 49.4008 3.23438 54.1221C3.23438 63.4712 8.22959 71.6487 15.6964 76.1413C19.5546 78.4638 24.0818 79.8019 28.9176 79.8019C43.1025 79.8019 54.5974 68.3035 54.5974 54.1221C54.5974 49.2621 53.2454 44.721 50.9021 40.8455L47.238 34.4983L47.2415 34.4948Z" fill="white"/>
<path d="M115.749 46.0107V45.9829C115.749 43.3657 113.832 41.8301 110.858 41.8301H106.251C105.807 41.8301 105.419 42.1871 105.419 42.5996V53.6092H108.681V50.635C108.681 50.4443 108.868 50.2433 109.052 50.2433H110.206L112.48 53.6092H116.252L113.538 49.6609C114.904 48.9849 115.753 47.7578 115.753 46.0141M112.491 46.1597C112.491 47.0853 111.787 47.6884 110.626 47.6884H108.678V45.092C108.678 44.8113 108.906 44.5825 109.184 44.5825H110.605C111.784 44.5825 112.491 45.1163 112.491 46.1285V46.1632V46.1597Z" fill="#3C3835"/>
<path d="M123.421 41.5979C119.788 41.5979 117.07 44.3399 117.07 47.7232V47.7475C117.07 51.1377 119.757 53.8485 123.39 53.8485C127.023 53.8485 129.754 51.0995 129.754 47.7232V47.6851C129.754 44.3052 127.054 41.5979 123.421 41.5979ZM126.416 47.7509C126.416 49.4495 125.23 50.8985 123.421 50.8985C121.611 50.8985 120.412 49.4183 120.412 47.7267V47.6885C120.412 45.9899 121.611 44.541 123.393 44.541C125.175 44.541 126.419 46.0246 126.419 47.7267V47.7509H126.416Z" fill="#3C3835"/>
<path d="M139.384 42.5858V48.0594L134.541 41.8301H132.333C131.869 41.8301 131.494 42.2114 131.494 42.6724V53.6057H134.725V47.1511L139.759 53.6057H142.608V41.8301H140.213C139.776 41.8301 139.384 42.1629 139.384 42.5858Z" fill="#3C3835"/>
<path d="M93.4495 42.6376V44.6933H96.9784V53.6021H100.244V45.0642C100.244 44.8631 100.41 44.6898 100.653 44.6898H103.776V41.823H94.2815C93.8308 41.823 93.4495 42.2147 93.446 42.6307" fill="#3C3835"/>
<path d="M82.5406 42.6446V53.6056H92.0076V50.8255H85.7679V49.4077C85.7679 49.1893 85.9655 48.9605 86.1735 48.9605H91.2727V46.3884H85.7679V45.0503C85.7679 44.8388 85.9481 44.6031 86.1492 44.6031H92.0076V41.823H83.376C82.9288 41.823 82.5371 42.1974 82.5371 42.6376" fill="#3C3835"/>
<path d="M163.611 46.2707C161.972 45.9033 161.573 45.6676 161.573 45.1372V45.0956C161.573 44.6727 161.954 44.3364 162.748 44.3364C163.473 44.3364 164.246 44.5306 165.015 44.898L165.258 45.0228C165.483 45.1233 165.74 45.2065 166.059 45.1407C166.288 45.0921 166.45 44.8841 166.655 44.6415L167.678 43.1994C166.402 42.1699 164.842 41.6326 162.835 41.6326C160.013 41.6326 158.277 43.2168 158.277 45.4041V45.4353C158.277 47.8549 160.218 48.5586 162.717 49.1375C164.315 49.5015 164.696 49.7719 164.696 50.2641V50.2919C164.696 50.8049 164.228 51.0996 163.358 51.0996C162.329 51.0996 161.337 50.8222 160.415 50.2849C160.148 50.1532 159.823 49.9729 159.403 50.0665C159.23 50.1047 159.098 50.2225 158.956 50.3889L157.725 51.8622C159.171 53.1448 161.161 53.8069 163.244 53.8069C166.104 53.8069 168 52.3752 168 49.9729V49.9417C168 47.7405 166.315 46.86 163.615 46.2707" fill="#3C3835"/>
<path d="M147.51 53.6057L148.102 52.1186C148.196 51.8829 148.393 51.6368 148.643 51.5917H152.851L153.676 53.6057H157.174L152.193 41.8301H149.52C149.125 41.8751 148.965 42.0866 148.827 42.3708L144.074 53.6057H147.51ZM150.605 45.6987L151.919 49.0473H149.27L150.605 45.6987Z" fill="#3C3835"/>
<path d="M74.0791 53.6092C74.0791 52.7321 74.0756 50.7528 74.0791 50.6384C74.086 50.4789 74.197 50.316 74.353 50.2605L74.5748 50.2432H75.8332C76.7067 50.2432 77.5768 50.1704 78.4053 49.8723C79.2754 49.5603 80.0623 49.0265 80.558 48.2292C81.0468 47.4457 81.2027 46.4959 81.1334 45.5842C81.0814 44.9048 80.8769 44.2358 80.4921 43.6673C79.674 42.4609 78.2181 41.9479 76.8211 41.8508C76.6339 41.8369 76.4398 41.8266 76.2561 41.83C75.698 41.83 75.1399 41.83 74.5852 41.83H72.2731C71.7219 41.83 70.8206 41.8057 70.8171 42.5996V53.6092H74.0791ZM77.8922 46.1597C77.8922 47.0852 77.1885 47.6884 76.0273 47.6884H74.0791V45.092C74.0791 44.8112 74.3079 44.5824 74.5852 44.5824H76.0065C77.1851 44.5824 77.8922 45.1162 77.8922 46.1285V46.1631V46.1597Z" fill="#3C3835"/>
<path d="M28.9209 83.0398C23.6657 83.0398 18.518 81.6116 14.0324 78.9147C5.37653 73.708 0 64.2063 0 54.1188C0 48.9884 1.37273 43.9308 3.96567 39.4937C4.26378 38.9772 6.33675 35.3825 21.8701 8.4721C25.5896 2.04523 28.9175 0.225322 37.3549 0H37.4416H70.9071L50.9851 34.495L53.6959 39.1956C56.4102 43.6916 57.8453 48.8498 57.8453 54.1188C57.8453 70.0682 44.8703 83.0398 28.9244 83.0398" fill="white"/>
<path d="M43.1682 54.1187C43.1682 61.9876 36.7898 68.3659 28.9209 68.3659C21.052 68.3659 14.6702 61.9876 14.6702 54.1187C14.6702 46.2497 21.0485 39.8679 28.9209 39.8679C36.7933 39.8679 43.1682 46.2463 43.1682 54.1187Z" fill="#535353"/>
<path d="M47.2414 34.4948L65.2914 3.24097H37.4381C29.6697 3.44549 27.6349 4.97768 24.678 10.0908L6.76317 41.1297C4.53768 44.9324 3.24121 49.3973 3.24121 54.1186C3.24121 63.4678 8.23643 71.6452 15.7032 76.1378C19.5614 78.4603 24.0887 79.7984 28.921 79.7984C43.1059 79.7984 54.6042 68.3001 54.6042 54.1186C54.6042 49.2586 53.2523 44.7175 50.9055 40.842L47.2414 34.4948ZM37.5803 9.80997H53.9109L43.449 27.9293L39.8855 21.752L33.2541 10.2675C34.2074 9.94169 35.5073 9.80997 37.5803 9.80997ZM28.921 73.2571C24.2273 73.2571 19.9254 71.562 16.5941 68.7576C12.4309 65.2495 9.78248 59.9943 9.78248 54.1186C9.78248 50.5828 10.7392 47.2654 12.4135 44.4229L28.9175 15.8313L35.3374 26.931L35.3444 26.9379L45.4249 44.4125L45.4319 44.4298C47.1062 47.2723 48.0664 50.5863 48.0664 54.1221C48.0664 64.6914 39.4972 73.2641 28.9244 73.2641" fill="#535353"/>
</svg>
